# xmcd
#
# Track frame offsets:
#	150
#	12351
#	24771
#	35318
#	45217
#	59474
#	70377
#	85579
#	97018
#	109695
#	127621
#	140352
#	153283
#	168826
#
# Disc length: 2536 seconds
#
# Revision: 0
# Processed by: cddbd v1.5.2PL0 Copyright (c) Steve Scherf et al.
# Submitted via: EasyCDDAExtractor 16.0.1.1
#
DISCID=9c09e60e
DTITLE=Judy Coder - A Tribute To Patsy Montana
DYEAR=2000
DGENRE=Country
TTITLE0=I Want To Be A Cowboy's Sweetheart
TTITLE1=My Ponchy Pony
TTITLE2=Little Pardner
TTITLE3=Two-Seated Sadddle
TTITLE4=Shine on Rocky Mountain Moonlight
TTITLE5=Cowboy Yodel
TTITLE6=Home On The Range
TTITLE7=Texas Plains
TTITLE8=Sioux City Sue
TTITLE9=Ridin' Down The Canyon
TTITLE10=Sixteen pounds
TTITLE11=I Was Born In The Ozark Mountain
TTITLE12=Yodel  Sweet Molly
TTITLE13=Outrun The Rain
EXTD=
EXTT0=
EXTT1=
EXTT2=
EXTT3=
EXTT4=
EXTT5=
EXTT6=
EXTT7=
EXTT8=
EXTT9=
EXTT10=
EXTT11=
EXTT12=
EXTT13=
PLAYORDER=
